<?xml version="1.0" encoding="UTF-8" standalone="no"?>
<svg
   xmlns:dc="http://purl.org/dc/elements/1.1/"
   xmlns:cc="http://creativecommons.org/ns#"
   xmlns:rdf="http://www.w3.org/1999/02/22-rdf-syntax-ns#"
   xmlns:svg="http://www.w3.org/2000/svg"
   xmlns="http://www.w3.org/2000/svg"
   xmlns:sodipodi="http://sodipodi.sourceforge.net/DTD/sodipodi-0.dtd"
   xmlns:inkscape="http://www.inkscape.org/namespaces/inkscape"
   class="ghost-svg"
   viewBox="0 0 493 161"
   version="1.1"
   id="svg20"
   sodipodi:docname="cpr-logo.svg"
   inkscape:version="0.92.2 (5c3e80d, 2017-08-06)"
   inkscape:export-filename="/home/dew/Git-Hub/kcpr.github.io/assets/images/cpr-logo.svg.png"
   inkscape:export-xdpi="89.379311"
   inkscape:export-ydpi="89.379311">
  <metadata
     id="metadata26">
    <rdf:RDF>
      <cc:Work
         rdf:about="">
        <dc:format>image/svg+xml</dc:format>
        <dc:type
           rdf:resource="http://purl.org/dc/dcmitype/StillImage" />
        <dc:title>Ghost Logo</dc:title>
      </cc:Work>
    </rdf:RDF>
  </metadata>
  <defs
     id="defs24" />
  <sodipodi:namedview
     pagecolor="#ffffff"
     bordercolor="#666666"
     borderopacity="1"
     objecttolerance="10"
     gridtolerance="10"
     guidetolerance="10"
     inkscape:pageopacity="0"
     inkscape:pageshadow="2"
     inkscape:window-width="1440"
     inkscape:window-height="841"
     id="namedview22"
     showgrid="false"
     inkscape:zoom="0.90263692"
     inkscape:cx="287.03194"
     inkscape:cy="80.5"
     inkscape:window-x="0"
     inkscape:window-y="27"
     inkscape:window-maximized="1"
     inkscape:current-layer="text38" />
  <title
     id="title2">Ghost Logo</title>
  <g
     id="g18"
     transform="matrix(1.2633666,0,0,1.143258,-0.04845947,-13.05044)"
     style="fill:none;fill-rule:evenodd">
    <g
       transform="translate(0,36)"
       id="g16"
       style="opacity:0.6;fill:#2e3134">
      <rect
         x="0.20900001"
         y="69.016998"
         width="33.643002"
         height="17.014"
         rx="4"
         id="rect6"
         style="fill:#330080" />
      <rect
         x="50.672001"
         y="69.016998"
         width="33.622002"
         height="17.014"
         rx="4"
         id="rect8"
         style="fill:#550000" />
      <rect
         x="0.184"
         y="34.990002"
         width="84.121002"
         height="17.014"
         rx="4"
         id="rect10"
         style="fill:#00aa00" />
      <rect
         x="0.20900001"
         y="0.96399999"
         width="50.469002"
         height="17.013"
         rx="4"
         id="rect12"
         style="fill:#3771c8" />
      <rect
         x="67.494003"
         y="0.96399999"
         width="16.820999"
         height="17.013"
         rx="4"
         id="rect14"
         style="fill:#ffcc00" />
    </g>
  </g>
  <flowRoot
     xml:space="preserve"
     id="flowRoot28"
     style="font-style:normal;font-weight:normal;font-size:133.33332825px;line-height:1.25;font-family:sans-serif;letter-spacing:0px;word-spacing:0px;fill:#000000;fill-opacity:1;stroke:none"><flowRegion
       id="flowRegion30"
       style="font-size:133.33332825px"><rect
         id="rect32"
         width="500.75507"
         height="141.80675"
         x="83.08989"
         y="-158.06517"
         style="font-size:133.33332825px" /></flowRegion><flowPara
       id="flowPara34">gh</flowPara></flowRoot>  <g
     aria-label="ЦПР"
     style="font-style:normal;font-weight:normal;font-size:40px;line-height:1.25;font-family:sans-serif;letter-spacing:0px;word-spacing:0px;fill:#2d3134;fill-opacity:1;stroke:none"
     id="text38">
    <path
       d="m 188.57228,110.00475 q -5.01627,8.68489 -11.49251,14.26269 -6.06445,5.12858 -11.97917,5.35319 -9.20898,0 -13.96321,-5.20345 -3.74349,-4.45475 -3.9681,-12.72786 0,-5.16602 1.98405,-11.34278 0.97331,-3.743486 1.53483,-4.903968 0.37435,-0.935872 2.4707,-4.903971 l 6.88802,-12.877604 q 4.04297,-7.11263 12.12891,-19.615885 4.97884,-8.64746 5.20345,-16.733397 0,-6.813151 -3.85579,-11.342774 -4.26758,-4.529622 -12.54069,-4.754231 -17.18262,0 -29.91048,14.562174 -11.49252,13.102213 -11.49252,27.290038 0,6.101888 3.2194,10.444336 3.1071,3.743489 10.10742,3.968098 10.1823,0 16.54623,-14.412434 5.01627,-11.866862 5.24088,-23.284504 l -0.14974,-3.069662 0.44922,-1.53483 0.7487,0.299479 0.93587,1.984049 q 1.83431,6.176758 1.83431,13.214518 0,12.31608 -5.6901,19.765624 -6.55111,8.647461 -19.91537,8.87207 -7.52441,0 -11.49251,-4.417317 -3.63118,-4.492188 -3.85579,-11.979167 0,-14.711913 11.82942,-28.37565 13.06478,-15.161132 31.40788,-15.161132 12.72787,0 20.55176,7.823893 6.4388,6.888021 6.4388,18.717447 0,2.583008 -0.14974,4.117839 0,2.545573 -0.7487,5.20345 -0.48665,3.331706 -4.00553,10.294596 -4.23014,9.545898 -10.89356,20.402018 l -9.17154,15.460607 q -4.6045,8.31055 -4.6045,14.2627 0,7.82389 6.88802,7.82389 7.9362,0 20.10254,-16.097 4.30502,-6.25163 7.8239,-13.027346 L 227.05535,30.5679 241.46779,29.519723 200.85093,109.70527 q -3.70606,7.11263 -3.70606,12.42838 0,4.97884 4.90398,5.20345 4.60449,0 8.46028,-4.30501 l 4.26758,-5.95215 1.38509,-1.53483 0.44922,-0.14974 0.63639,0.7487 q 0,3.06966 -1.08561,7.03776 l -1.38509,6.13932 4.15527,-2.13379 4.30502,-2.77018 0.59895,0.63639 -0.29948,0.89844 -4.75423,3.51888 -4.30501,2.77018 -1.38509,7.0752 q -0.89844,5.12858 -2.43327,7.78646 -2.28353,6.4388 -7.07519,6.4388 -5.05371,0 -5.05371,-5.50293 0,-5.6901 4.90397,-10.59408 3.40657,-3.85579 9.05924,-6.88802 l 1.23535,-5.05371 1.04818,-4.60449 q -3.29427,4.7168 -6.13932,6.88802 l -2.88249,1.23535 q -1.23535,0.44922 -5.09115,0.78614 -6.88802,0 -10.10742,-3.21941 -3.2194,-3.29427 -3.2194,-8.46028 l 0.29948,-3.81836 z m 23.28451,23.32194 -6.88802,5.50292 q -4.04297,4.04297 -4.30502,9.05925 0,3.29427 3.06967,3.51888 1.75944,0 4.75423,-5.05371 l 2.02148,-6.4388 z"
       style="font-style:normal;font-variant:normal;font-weight:normal;font-stretch:normal;font-size:153.33332825px;font-family:ArtScript;-inkscape-font-specification:ArtScript;fill:#2d3134;fill-opacity:1"
       id="path845" />
    <path
       d="m 329.88901,37.193876 -17.4821,-4.604492 q -8.38542,-2.320963 -13.514,-2.320963 -20.1774,0 -33.5791,12.877603 -11.49251,11.267904 -11.49251,25.15625 0,4.866536 2.77018,9.059244 2.69532,3.144531 8.27311,3.369141 10.85612,0 17.93132,-13.513997 5.61523,-10.668945 5.83984,-22.835286 l 0.29948,-1.235352 q 2.84505,4.829102 3.06966,13.214518 0,10.930989 -5.83984,18.081054 -6.88802,8.722331 -20.85124,8.722331 -13.77604,0 -13.77604,-14.861653 0,-15.198568 12.39095,-27.140299 14.2627,-13.813476 37.88412,-13.813476 h 5.83984 l 4.60449,0.636393 q 18.90462,1.83431 23.43425,1.83431 l 8.75976,0.299479 7.33724,0.299479 19.35384,1.235352 q 8.19824,0 12.39095,-1.684571 4.19271,-1.75944 8.12337,-6.438801 -3.63118,9.620768 -9.32129,13.476562 -6.77571,4.080403 -21.18815,4.305013 -10.03255,0 -17.78157,-1.048178 -8.34798,-1.272786 -13.47656,-3.069661 z m 7.97363,92.613934 q -8.08594,0 -13.21452,-6.43881 -4.67936,-6.25162 -4.90397,-17.81901 0,-13.214514 8.61003,-28.338212 7.15006,-12.915038 18.68001,-25.305988 3.36914,-4.305013 7.22493,-6.438802 l 2.43327,-1.385091 4.30501,-2.320964 0.6364,-0.149739 q -5.01628,4.305013 -9.65821,10.743814 -4.64192,6.513672 -9.20898,15.647786 -10.14486,20.065104 -10.14486,35.563146 0,9.05925 2.91993,13.81348 3.59375,5.5778 11.97916,5.80241 h 2.91992 l 3.51888,-0.59896 3.81836,-0.59896 0.44922,0.14974 -1.68457,1.53483 q -0.89844,0.59896 -3.51888,2.13379 -1.83431,0.82357 -2.95736,1.31022 -1.08561,0.44922 -2.39583,1.01075 -4.75423,1.34765 -9.80794,1.68457 z M 292.75359,85.934109 q 7.41211,-18.118489 11.0433,-25.00651 7.2998,-14.112955 21.7871,-20.514322 l 0.44922,0.14974 -0.29948,0.299479 q -4.60449,3.256836 -9.95768,16.097004 l -7.97363,25.00651 q -2.50814,7.973633 -4.90397,13.626302 -2.43327,6.363928 -5.39063,10.743818 -6.25162,10.78125 -16.99544,17.33235 -10.44433,5.87728 -27.43978,6.13933 -10.14485,0 -15.64778,-4.6045 -4.52963,-3.85579 -4.75423,-9.50846 0,-7.1875 7.82389,-11.97917 7.67415,-4.529618 16.54622,-4.754228 h 1.23535 l 1.23535,0.486654 0.29948,0.449219 q -9.73307,0 -17.18261,4.305015 -7.29981,4.0804 -7.52442,11.19303 0,4.64193 3.55632,7.97363 4.56706,4.11784 13.32682,4.11784 11.60482,0 20.25228,-7.52441 8.98437,-8.12337 20.51432,-34.028321 z"
       style="font-style:normal;font-variant:normal;font-weight:normal;font-stretch:normal;font-size:153.33332825px;font-family:ArtScript;-inkscape-font-specification:ArtScript;fill:#2d3134;fill-opacity:1"
       id="path847" />
    <path
       d="m 368.78387,115.69485 q 0,-7.00033 7.48698,-11.49251 7.56185,-4.604495 16.58366,-4.604495 h 1.53483 l 0.89844,0.29948 0.29948,0.299475 -0.44922,0.29948 q -9.24642,0 -16.69596,4.30502 -7.00033,4.0804 -7.22494,11.04329 0,5.46549 4.90397,9.05924 4.86654,3.21941 11.97917,3.21941 19.72819,0 29.57357,-21.78711 l 6.4388,-17.33236 -5.35319,1.534831 q -1.19792,0.299479 -1.83431,0.598958 -0.56152,0 -1.53483,0.636393 l -3.51888,1.83431 -1.08561,0.299479 -0.29948,-0.299479 1.04817,-0.786133 q 3.55632,-2.208658 7.0752,-3.668619 l 6.13932,-1.98405 4.90397,-13.963215 q 5.98959,-16.246745 14.07552,-26.354166 5.24089,-6.813151 12.57813,-12.278645 l -3.2194,-1.085612 -5.05371,-1.048177 -6.43881,-0.636394 -2.91992,-0.149739 q -26.05468,0 -42.00195,14.562174 -13.36426,12.203775 -13.66374,27.290038 0,6.513672 3.06967,10.294596 3.03222,3.66862 9.20898,3.66862 11.08073,0 19.46614,-14.562174 7.00033,-12.166341 7.22494,-24.070638 l 0.14974,-0.935872 0.29948,-0.299479 0.93587,4.604492 0.29948,5.839843 q 0,12.428385 -5.54036,20.701497 -7.03776,10.63151 -22.04916,10.85612 -7.56185,0 -11.52994,-4.417318 -3.59375,-4.529622 -3.81836,-11.829427 0,-15.161132 14.26269,-28.525389 8.23568,-7.561849 19.31641,-11.492513 10.89355,-3.59375 24.51985,-3.818359 9.5459,0 12.57813,0.598958 l 4.30501,0.636393 4.90397,1.534831 4.15527,-1.534831 5.05371,-0.786133 3.06967,0.14974 -0.6364,0.14974 q -1.90918,0 -5.20345,1.385091 l -2.77018,1.83431 q 5.6901,1.909179 8.75977,5.390624 5.42806,5.42806 5.65266,13.626302 0,12.278645 -10.10742,21.000976 -5.16601,3.893229 -19.01692,9.508463 l -4.90397,1.534831 -4.45476,0.935872 q -7.33724,23.35937 -21.15071,35.11393 -11.86686,9.58333 -30.06022,9.80794 -9.20899,0 -14.86166,-3.81836 -5.12858,-3.81835 -5.35319,-10.89355 z m 91.67806,-78.688148 q -4.9414,6.625976 -8.75976,14.899088 -4.82911,10.519205 -10.70638,31.258137 2.95735,-0.486654 5.8024,-1.534831 9.35873,-3.107096 14.59961,-8.273112 5.5778,-6.251627 5.80241,-19.166666 0,-6.625976 -1.98405,-10.55664 -1.83431,-4.080404 -4.75423,-6.625976 z"
       style="font-style:normal;font-variant:normal;font-weight:normal;font-stretch:normal;font-size:153.33332825px;font-family:ArtScript;-inkscape-font-specification:ArtScript;fill:#2d3134;fill-opacity:1"
       id="path849" />
  </g>
</svg>
